<?xml version="1.0" encoding="utf-8"?>
<?xml-stylesheet type="text/xsl" href="rss1.xsl"?>
<rss version="2.0" xmlns:atom="http://www.w3.org/2005/Atom" xmlns:content="http://purl.org/rss/1.0/modules/content/" xmlns:dc="http://purl.org/dc/elements/1.1/" xmlns:media="http://search.yahoo.com/mrss/">
<channel>
 <title>Getty</title>
 <link>http://www.gettyimg.com/</link>
 <atom:link href="http://www.gettyimg.com/" rel="self" type="application/rss+xml" />

 
                <item>
                <title><![CDATA[【Singles (lossless)】FLAC - Madonna - Love Profusion (The Remixes) | Qobuz CD 16bit / 44.1kHz]]></title>
                <link><![CDATA[https://sharemania.us/threads/madonna-love-profusion-the-remixes-qobuz-cd-16bit-44-1khz.235643/]]></link>
                <description><![CDATA[<article>
<blockquote class="messageText SelectQuoteContainer ugc baseHtml">
<div style="text-align: center"><img src="https://static.qobuz.com/images/covers/ic/f5/q6cir7aiif5ic_600.jpg" class="bbCodeImage LbImage" alt="[​IMG]" data-url="https://static.qobuz.com/images/covers/ic/f5/q6cir7aiif5ic_600.jpg" style=""><br>
<span style="font-size: 15px"><b>Madonna – Love Profusion (The Remixes)</b></span><br>
<br>
<b>Label/Cat#:</b> Warner Records<br>
<b>Year:</b> 2003-12-08<br>
<b>Genre:</b> Dance, Pop<br>
<br>
<span style="font-size: 12px"><b>Tracklist</b></span><br>
<b>1.</b> Love Profusion <i>(03:36)</i><br>
<b>2.</b> Love Profusion (Headcleanr Rock Mix) <i>(03:16)</i><br>
<b>3.</b> Love Profusion (Blow-Up Mix) <i>(06:08)</i><br>
<b>4.</b> Love Profusion (The Passengerz Club Profusion) <i>(09:32)</i><br>
<b>5.</b> Love Profusion (Ralphi Rosario's House Vocal; Extended) <i>(07:27)</i><br>
<b>6.</b> Love Profusion (Craig J.'s 'Good Vibe' Mix) <i>(07:12)</i><br>
<b>7.</b> Love Profusion (Ralphi Rosario's Big Room Vox Mix; Extended / Revised) <i>(09:59)</i><br>
<b>8.</b> Love Profusion (Ralphi Rosario's Big Room Dub) <i>(08:55)</i><br>
<b>9.</b> Love Profusion (The Passengerz Dub Profusion) <i>(08:03)</i><br>
<b>10.</b> Nothing Fails (Peter's Lost In Space Mix) <i>(08:36)</i><br>
<br>
<b>Total length:</b> 01:12:44<br>
<div class="bbCodeBlock bbCodeVfcHH HiddenContent">
<div class="attribution type">Hidden Content:</div>
<blockquote>You must reply before you can see the hidden data contained here.</blockquote>
</div></div>
<div class="messageTextEndMarker">&nbsp;</div>
</blockquote>
</article>]]></description>
                <author><![CDATA[Yennefer]]></author>
                </item>

                
                <item>
                <title><![CDATA[【Singles (lossless)】FLAC - Miley Cyrus - Can't Be Tamed [Amazon Music FLAC}]]></title>
                <link><![CDATA[https://sharemania.us/threads/miley-cyrus-cant-be-tamed-amazon-music-flac.235644/]]></link>
                <description><![CDATA[<article>
<blockquote class="messageText SelectQuoteContainer ugc baseHtml">
<div style="text-align: center"><img src="https://i.discogs.com/mPDI5gbFjLvt58HOxWb6o6l-UfpL0Rwwb6vn4tHQe3s/rs:fit/g:sm/q:90/h:500/w:500/czM6Ly9kaXNjb2dz/LWRhdGFiYXNlLWlt/YWdlcy9SLTIyNjY4/NTgtMTI3NjI4ODIz/Ny5qcGVn.jpeg" class="bbCodeImage LbImage" alt="[​IMG]" data-url="https://i.discogs.com/mPDI5gbFjLvt58HOxWb6o6l-UfpL0Rwwb6vn4tHQe3s/rs:fit/g:sm/q:90/h:500/w:500/czM6Ly9kaXNjb2dz/LWRhdGFiYXNlLWlt/YWdlcy9SLTIyNjY4/NTgtMTI3NjI4ODIz/Ny5qcGVn.jpeg" style=""> <br>
Single (ripped by me)<br>
<br>
FLAC<br>
<br>
<div class="bbCodeBlock bbCodeVfcHH HiddenContent">
<div class="attribution type">Hidden Content:</div>
<blockquote>You must either reply or click 'Like' to see the hidden information contained here.</blockquote>
</div><a href="https://music.amazon.com.br/albums/B073JCB718" target="_blank" class="externalLink" rel="nofollow">https://music.amazon.com.br/albums/B073JCB718</a>​</div>
<div class="messageTextEndMarker">&nbsp;</div>
</blockquote>
</article>]]></description>
                <author><![CDATA[taytayswift133]]></author>
                </item>

                
                <item>
                <title><![CDATA[【UPSCALED】Karina(aespa) - 'Menagerie' Tokyo Dome | HDR 4K 60P FROM Blury-ray]]></title>
                <link><![CDATA[https://sharemania.us/threads/karina-aespa-menagerie-tokyo-dome-hdr-4k-60p-from-blury-ray.235645/]]></link>
                <description><![CDATA[<article>
<blockquote class="messageText SelectQuoteContainer ugc baseHtml">
<div style="text-align: center"><b><i><span style="font-size: 18px">The video only cuts karina solo</span></i></b><br>
<span style="font-size: 18px"><i>AI enhanced to 4K 60fps , I personally make HDR.</i></span><br>
Will add youtube preview link later<br>
<br>
<b>Source from</b>
<div class="ToggleTriggerAnchor bbCodeSpoilerContainer">
<button type="button" class="button bbCodeSpoilerButton ToggleTrigger Tooltip JsOnly" data-target="> .SpoilerTarget"><span>Spoiler: <span class="SpoilerTitle">Blury-ray Mediainfo</span></span></button>
<div class="SpoilerTarget bbCodeSpoilerText">Format : BDAV<br>
Format/Info : Blu-ray Video<br>
File size : 43.7 GiB<br>
Duration : 2 h 31 min<br>
Overall bit rate mode : Variable<br>
Overall bit rate : 41.4 Mb/s<br>
Maximum Overall bit rate : 48.0 Mb/s<br>
Frame rate : 23.976 FPS<br>
Video<br>
ID : 4113 (0x1011)<br>
Menu ID : 1 (0x1)<br>
Format : AVC<br>
Format/Info : Advanced Video Codec<br>
Format profile : High@L4.1<br>
Format settings : CABAC / 4 Ref Frames<br>
Format settings, CABAC : Yes<br>
Format settings, Reference frames : 4 frames<br>
Codec ID : 27<br>
Duration : 2 h 31 min<br>
Bit rate mode : Variable<br>
Bit rate : 37.4 Mb/s<br>
Maximum bit rate : 38.0 Mb/s<br>
Width : 1 920 pixels<br>
Height : 1 080 pixels<br>
Display aspect ratio : 16:9<br>
Frame rate : 23.976 (24000/1001) FPS<br>
Color space : YUV<br>
Chroma subsampling : 4:2:0<br>
Bit depth : 8 bits<br>
Scan type : Progressive<br>
Bits/(Pixel*Frame) : 0.752<br>
Stream size : 39.5 GiB (90%)<br>
Audio<br>
ID : 4352 (0x1100)<br>
Menu ID : 1 (0x1)<br>
Format : PCM<br>
Format settings : Big / Signed<br>
Muxing mode : Blu-ray<br>
Codec ID : 128<br>
Duration : 2 h 31 min<br>
Bit rate mode : Constant<br>
Bit rate : 2 304 kb/s<br>
Channel(s) : 2 channels<br>
Channel layout : L R<br>
Sampling rate : 48.0 kHz<br>
Bit depth : 24 bits<br>
Stream size : 2.43 GiB (6%)</div>
</div><br>
<b>After Upscale</b><br>
<div class="ToggleTriggerAnchor bbCodeSpoilerContainer">
<button type="button" class="button bbCodeSpoilerButton ToggleTrigger Tooltip JsOnly" data-target="> .SpoilerTarget"><span>Spoiler: <span class="SpoilerTitle">Mediainfo</span></span></button>
<div class="SpoilerTarget bbCodeSpoilerText">Format : MPEG-4<br>
Format profile : Base Media<br>
Codec ID : isom (isom/iso2/mp41)<br>
File size : 4.88 GiB<br>
Duration : 4 min 58 s<br>
Overall bit rate : 140 Mb/s<br>
Frame rate : 60.000 FPS<br>
Encoded date : 2024-01-11 20:59:35 UTC<br>
Tagged date : 2024-01-11 20:59:35 UTC<br>
Writing application : Blackmagic Design DaVinci Resolve Studio<br>
Video<br>
ID : 1<br>
Format : HEVC<br>
Format/Info : High Efficiency Video Coding<br>
Format profile : Main 10@L5.1@High<br>
Codec ID : hvc1<br>
Codec ID/Info : High Efficiency Video Coding<br>
Duration : 4 min 58 s<br>
Bit rate : 140 Mb/s<br>
Width : 3 840 pixels<br>
Height : 2 160 pixels<br>
Display aspect ratio : 16:9<br>
Frame rate mode : Constant<br>
Frame rate : 60.000 FPS<br>
Color space : YUV<br>
Chroma subsampling : 4:2:0<br>
Bit depth : 10 bits<br>
Scan type : Progressive<br>
Bits/(Pixel*Frame) : 0.281<br>
Stream size : 4.87 GiB (100%)<br>
Encoded date : 2024-01-11 20:59:35 UTC<br>
Tagged date : 2024-01-11 20:59:35 UTC<br>
Color range : Limited<br>
Color primaries : BT.2020<br>
Transfer characteristics : PQ<br>
Matrix coefficients : BT.2020 non-constant<br>
Codec configuration box : hvcC<br>
Audio<br>
ID : 2<br>
Format : AAC LC<br>
Format/Info : Advanced Audio Codec Low Complexity<br>
Codec ID : mp4a-40-2<br>
Duration : 4 min 58 s<br>
Bit rate mode : Constant<br>
Bit rate : 320 kb/s<br>
Channel(s) : 2 channels<br>
Channel layout : L R<br>
Sampling rate : 48.0 kHz<br>
Frame rate : 46.875 FPS (1024 SPF)<br>
Compression mode : Lossy<br>
Stream size : 11.4 MiB (0%)<br>
Default : Yes<br>
Alternate group : 1<br>
Encoded date : 2024-01-11 20:59:35 UTC<br>
Tagged date : 2024-01-11 20:59:35 UTC</div>
</div></div><br>
<div style="text-align: center">HEVC 420 10bit.<br>
Mac player: quicktime,infuse<br>
Window player: potplayer,mpv<br>
<br>
<div class="bbCodeBlock bbCodeVfcHH HiddenContent">
<div class="attribution type">Hidden Content:</div>
<blockquote>You must reply before you can see the hidden data contained here.</blockquote>
</div>Tip: If mega reaches the traffic limit, change the IP to reset the traffic​</div>
<div class="messageTextEndMarker">&nbsp;</div>
</blockquote>
</article>]]></description>
                <author><![CDATA[pcyiiu]]></author>
                </item>

                </channel></rss>